<mxfile host="app.diagrams.net" modified="2022-04-15T01:44:39.329Z" agent="5.0 (Windows NT 10.0; Win64; x64) AppleWebKit/537.36 (KHTML, like Gecko) Chrome/100.0.4896.75 Safari/537.36 Edg/100.0.1185.39" etag="7ZcE7RAm1GzY3HzfOmfv" version="17.4.4" type="github">
  <diagram id="7N-qRhq9zkc9S660jnCf" name="Page-1">
    <mxGraphModel dx="990" dy="1725" grid="1" gridSize="10" guides="1" tooltips="1" connect="1" arrows="1" fold="1" page="1" pageScale="1" pageWidth="827" pageHeight="1169" math="0" shadow="0">
      <root>
        <mxCell id="0" />
        <mxCell id="1" parent="0" />
        <mxCell id="2Yrs-EgXKUs0sEF47n1H-64" style="edgeStyle=orthogonalEdgeStyle;rounded=0;orthogonalLoop=1;jettySize=auto;html=1;entryX=0.5;entryY=0;entryDx=0;entryDy=0;entryPerimeter=0;" edge="1" parent="1" source="2Yrs-EgXKUs0sEF47n1H-1" target="2Yrs-EgXKUs0sEF47n1H-36">
          <mxGeometry relative="1" as="geometry" />
        </mxCell>
        <mxCell id="2Yrs-EgXKUs0sEF47n1H-1" value="" style="shape=table;html=1;whiteSpace=wrap;startSize=0;container=1;collapsible=0;childLayout=tableLayout;fillColor=#ffe6cc;strokeColor=#d79b00;" vertex="1" parent="1">
          <mxGeometry x="110" y="40" width="600" height="40" as="geometry" />
        </mxCell>
        <mxCell id="2Yrs-EgXKUs0sEF47n1H-2" value="" style="shape=tableRow;horizontal=0;startSize=0;swimlaneHead=0;swimlaneBody=0;top=0;left=0;bottom=0;right=0;collapsible=0;dropTarget=0;fillColor=none;points=[[0,0.5],[1,0.5]];portConstraint=eastwest;" vertex="1" parent="2Yrs-EgXKUs0sEF47n1H-1">
          <mxGeometry width="600" height="40" as="geometry" />
        </mxCell>
        <mxCell id="2Yrs-EgXKUs0sEF47n1H-32" value="0" style="shape=partialRectangle;html=1;whiteSpace=wrap;connectable=0;fillColor=none;top=0;left=0;bottom=0;right=0;overflow=hidden;" vertex="1" parent="2Yrs-EgXKUs0sEF47n1H-2">
          <mxGeometry width="60" height="40" as="geometry">
            <mxRectangle width="60" height="40" as="alternateBounds" />
          </mxGeometry>
        </mxCell>
        <mxCell id="2Yrs-EgXKUs0sEF47n1H-29" value="1" style="shape=partialRectangle;html=1;whiteSpace=wrap;connectable=0;fillColor=none;top=0;left=0;bottom=0;right=0;overflow=hidden;" vertex="1" parent="2Yrs-EgXKUs0sEF47n1H-2">
          <mxGeometry x="60" width="60" height="40" as="geometry">
            <mxRectangle width="60" height="40" as="alternateBounds" />
          </mxGeometry>
        </mxCell>
        <mxCell id="2Yrs-EgXKUs0sEF47n1H-23" value="2" style="shape=partialRectangle;html=1;whiteSpace=wrap;connectable=0;fillColor=none;top=0;left=0;bottom=0;right=0;overflow=hidden;" vertex="1" parent="2Yrs-EgXKUs0sEF47n1H-2">
          <mxGeometry x="120" width="60" height="40" as="geometry">
            <mxRectangle width="60" height="40" as="alternateBounds" />
          </mxGeometry>
        </mxCell>
        <mxCell id="2Yrs-EgXKUs0sEF47n1H-20" value="3" style="shape=partialRectangle;html=1;whiteSpace=wrap;connectable=0;fillColor=none;top=0;left=0;bottom=0;right=0;overflow=hidden;" vertex="1" parent="2Yrs-EgXKUs0sEF47n1H-2">
          <mxGeometry x="180" width="60" height="40" as="geometry">
            <mxRectangle width="60" height="40" as="alternateBounds" />
          </mxGeometry>
        </mxCell>
        <mxCell id="2Yrs-EgXKUs0sEF47n1H-17" value="4" style="shape=partialRectangle;html=1;whiteSpace=wrap;connectable=0;fillColor=#f8cecc;top=0;left=0;bottom=0;right=0;overflow=hidden;strokeColor=#b85450;" vertex="1" parent="2Yrs-EgXKUs0sEF47n1H-2">
          <mxGeometry x="240" width="60" height="40" as="geometry">
            <mxRectangle width="60" height="40" as="alternateBounds" />
          </mxGeometry>
        </mxCell>
        <mxCell id="2Yrs-EgXKUs0sEF47n1H-14" value="5" style="shape=partialRectangle;html=1;whiteSpace=wrap;connectable=0;fillColor=none;top=0;left=0;bottom=0;right=0;overflow=hidden;" vertex="1" parent="2Yrs-EgXKUs0sEF47n1H-2">
          <mxGeometry x="300" width="60" height="40" as="geometry">
            <mxRectangle width="60" height="40" as="alternateBounds" />
          </mxGeometry>
        </mxCell>
        <mxCell id="2Yrs-EgXKUs0sEF47n1H-3" value="6" style="shape=partialRectangle;html=1;whiteSpace=wrap;connectable=0;fillColor=none;top=0;left=0;bottom=0;right=0;overflow=hidden;" vertex="1" parent="2Yrs-EgXKUs0sEF47n1H-2">
          <mxGeometry x="360" width="60" height="40" as="geometry">
            <mxRectangle width="60" height="40" as="alternateBounds" />
          </mxGeometry>
        </mxCell>
        <mxCell id="2Yrs-EgXKUs0sEF47n1H-4" value="7" style="shape=partialRectangle;html=1;whiteSpace=wrap;connectable=0;fillColor=none;top=0;left=0;bottom=0;right=0;overflow=hidden;" vertex="1" parent="2Yrs-EgXKUs0sEF47n1H-2">
          <mxGeometry x="420" width="60" height="40" as="geometry">
            <mxRectangle width="60" height="40" as="alternateBounds" />
          </mxGeometry>
        </mxCell>
        <mxCell id="2Yrs-EgXKUs0sEF47n1H-5" value="8" style="shape=partialRectangle;html=1;whiteSpace=wrap;connectable=0;fillColor=none;top=0;left=0;bottom=0;right=0;overflow=hidden;" vertex="1" parent="2Yrs-EgXKUs0sEF47n1H-2">
          <mxGeometry x="480" width="60" height="40" as="geometry">
            <mxRectangle width="60" height="40" as="alternateBounds" />
          </mxGeometry>
        </mxCell>
        <mxCell id="2Yrs-EgXKUs0sEF47n1H-26" value="9" style="shape=partialRectangle;html=1;whiteSpace=wrap;connectable=0;fillColor=none;top=0;left=0;bottom=0;right=0;overflow=hidden;" vertex="1" parent="2Yrs-EgXKUs0sEF47n1H-2">
          <mxGeometry x="540" width="60" height="40" as="geometry">
            <mxRectangle width="60" height="40" as="alternateBounds" />
          </mxGeometry>
        </mxCell>
        <mxCell id="2Yrs-EgXKUs0sEF47n1H-83" style="edgeStyle=orthogonalEdgeStyle;rounded=0;orthogonalLoop=1;jettySize=auto;html=1;entryX=0.5;entryY=0;entryDx=0;entryDy=0;" edge="1" parent="1" source="2Yrs-EgXKUs0sEF47n1H-35" target="2Yrs-EgXKUs0sEF47n1H-69">
          <mxGeometry relative="1" as="geometry" />
        </mxCell>
        <mxCell id="2Yrs-EgXKUs0sEF47n1H-35" value="" style="shape=table;html=1;whiteSpace=wrap;startSize=0;container=1;collapsible=0;childLayout=tableLayout;fillColor=#ffe6cc;strokeColor=#d79b00;" vertex="1" parent="1">
          <mxGeometry x="110" y="140" width="600" height="40" as="geometry" />
        </mxCell>
        <mxCell id="2Yrs-EgXKUs0sEF47n1H-36" value="" style="shape=tableRow;horizontal=0;startSize=0;swimlaneHead=0;swimlaneBody=0;top=0;left=0;bottom=0;right=0;collapsible=0;dropTarget=0;fillColor=none;points=[[0,0.5],[1,0.5]];portConstraint=eastwest;" vertex="1" parent="2Yrs-EgXKUs0sEF47n1H-35">
          <mxGeometry width="600" height="40" as="geometry" />
        </mxCell>
        <mxCell id="2Yrs-EgXKUs0sEF47n1H-37" value="0" style="shape=partialRectangle;html=1;whiteSpace=wrap;connectable=0;fillColor=none;top=0;left=0;bottom=0;right=0;overflow=hidden;" vertex="1" parent="2Yrs-EgXKUs0sEF47n1H-36">
          <mxGeometry width="60" height="40" as="geometry">
            <mxRectangle width="60" height="40" as="alternateBounds" />
          </mxGeometry>
        </mxCell>
        <mxCell id="2Yrs-EgXKUs0sEF47n1H-38" value="1" style="shape=partialRectangle;html=1;whiteSpace=wrap;connectable=0;fillColor=#f8cecc;top=0;left=0;bottom=0;right=0;overflow=hidden;strokeColor=#b85450;" vertex="1" parent="2Yrs-EgXKUs0sEF47n1H-36">
          <mxGeometry x="60" width="60" height="40" as="geometry">
            <mxRectangle width="60" height="40" as="alternateBounds" />
          </mxGeometry>
        </mxCell>
        <mxCell id="2Yrs-EgXKUs0sEF47n1H-39" value="2" style="shape=partialRectangle;html=1;whiteSpace=wrap;connectable=0;fillColor=none;top=0;left=0;bottom=0;right=0;overflow=hidden;" vertex="1" parent="2Yrs-EgXKUs0sEF47n1H-36">
          <mxGeometry x="120" width="60" height="40" as="geometry">
            <mxRectangle width="60" height="40" as="alternateBounds" />
          </mxGeometry>
        </mxCell>
        <mxCell id="2Yrs-EgXKUs0sEF47n1H-40" value="3" style="shape=partialRectangle;html=1;whiteSpace=wrap;connectable=0;fillColor=none;top=0;left=0;bottom=0;right=0;overflow=hidden;" vertex="1" parent="2Yrs-EgXKUs0sEF47n1H-36">
          <mxGeometry x="180" width="60" height="40" as="geometry">
            <mxRectangle width="60" height="40" as="alternateBounds" />
          </mxGeometry>
        </mxCell>
        <mxCell id="2Yrs-EgXKUs0sEF47n1H-41" value="4" style="shape=partialRectangle;html=1;whiteSpace=wrap;connectable=0;top=0;left=0;bottom=0;right=0;overflow=hidden;" vertex="1" parent="2Yrs-EgXKUs0sEF47n1H-36">
          <mxGeometry x="240" width="60" height="40" as="geometry">
            <mxRectangle width="60" height="40" as="alternateBounds" />
          </mxGeometry>
        </mxCell>
        <mxCell id="2Yrs-EgXKUs0sEF47n1H-42" value="5" style="shape=partialRectangle;html=1;whiteSpace=wrap;connectable=0;top=0;left=0;bottom=0;right=0;overflow=hidden;" vertex="1" parent="2Yrs-EgXKUs0sEF47n1H-36">
          <mxGeometry x="300" width="60" height="40" as="geometry">
            <mxRectangle width="60" height="40" as="alternateBounds" />
          </mxGeometry>
        </mxCell>
        <mxCell id="2Yrs-EgXKUs0sEF47n1H-43" value="6" style="shape=partialRectangle;html=1;whiteSpace=wrap;connectable=0;top=0;left=0;bottom=0;right=0;overflow=hidden;" vertex="1" parent="2Yrs-EgXKUs0sEF47n1H-36">
          <mxGeometry x="360" width="60" height="40" as="geometry">
            <mxRectangle width="60" height="40" as="alternateBounds" />
          </mxGeometry>
        </mxCell>
        <mxCell id="2Yrs-EgXKUs0sEF47n1H-44" value="7" style="shape=partialRectangle;html=1;whiteSpace=wrap;connectable=0;top=0;left=0;bottom=0;right=0;overflow=hidden;" vertex="1" parent="2Yrs-EgXKUs0sEF47n1H-36">
          <mxGeometry x="420" width="60" height="40" as="geometry">
            <mxRectangle width="60" height="40" as="alternateBounds" />
          </mxGeometry>
        </mxCell>
        <mxCell id="2Yrs-EgXKUs0sEF47n1H-45" value="8" style="shape=partialRectangle;html=1;whiteSpace=wrap;connectable=0;top=0;left=0;bottom=0;right=0;overflow=hidden;" vertex="1" parent="2Yrs-EgXKUs0sEF47n1H-36">
          <mxGeometry x="480" width="60" height="40" as="geometry">
            <mxRectangle width="60" height="40" as="alternateBounds" />
          </mxGeometry>
        </mxCell>
        <mxCell id="2Yrs-EgXKUs0sEF47n1H-46" value="9" style="shape=partialRectangle;html=1;whiteSpace=wrap;connectable=0;top=0;left=0;bottom=0;right=0;overflow=hidden;" vertex="1" parent="2Yrs-EgXKUs0sEF47n1H-36">
          <mxGeometry x="540" width="60" height="40" as="geometry">
            <mxRectangle width="60" height="40" as="alternateBounds" />
          </mxGeometry>
        </mxCell>
        <mxCell id="2Yrs-EgXKUs0sEF47n1H-65" value="&lt;h1&gt;lo = 0, hi = 9, target = 3&lt;/h1&gt;" style="text;html=1;align=center;verticalAlign=middle;resizable=0;points=[];autosize=1;strokeColor=none;fillColor=none;" vertex="1" parent="1">
          <mxGeometry x="440" y="-10" width="270" height="50" as="geometry" />
        </mxCell>
        <mxCell id="2Yrs-EgXKUs0sEF47n1H-66" value="mid" style="text;html=1;align=center;verticalAlign=middle;resizable=0;points=[];autosize=1;strokeColor=none;fillColor=none;" vertex="1" parent="1">
          <mxGeometry x="380" y="40" width="30" height="20" as="geometry" />
        </mxCell>
        <mxCell id="2Yrs-EgXKUs0sEF47n1H-67" value="&lt;h1&gt;lo = 0, hi = 3, target = 3&lt;/h1&gt;" style="text;html=1;align=center;verticalAlign=middle;resizable=0;points=[];autosize=1;strokeColor=none;fillColor=none;" vertex="1" parent="1">
          <mxGeometry x="440" y="90" width="270" height="50" as="geometry" />
        </mxCell>
        <mxCell id="2Yrs-EgXKUs0sEF47n1H-68" value="mid" style="text;html=1;align=center;verticalAlign=middle;resizable=0;points=[];autosize=1;strokeColor=none;fillColor=none;" vertex="1" parent="1">
          <mxGeometry x="200" y="140" width="30" height="20" as="geometry" />
        </mxCell>
        <mxCell id="2Yrs-EgXKUs0sEF47n1H-98" style="edgeStyle=orthogonalEdgeStyle;rounded=0;orthogonalLoop=1;jettySize=auto;html=1;entryX=0.5;entryY=0;entryDx=0;entryDy=0;entryPerimeter=0;" edge="1" parent="1" source="2Yrs-EgXKUs0sEF47n1H-69" target="2Yrs-EgXKUs0sEF47n1H-85">
          <mxGeometry relative="1" as="geometry" />
        </mxCell>
        <mxCell id="2Yrs-EgXKUs0sEF47n1H-69" value="" style="shape=table;html=1;whiteSpace=wrap;startSize=0;container=1;collapsible=0;childLayout=tableLayout;" vertex="1" parent="1">
          <mxGeometry x="110" y="240" width="600" height="40" as="geometry" />
        </mxCell>
        <mxCell id="2Yrs-EgXKUs0sEF47n1H-70" value="" style="shape=tableRow;horizontal=0;startSize=0;swimlaneHead=0;swimlaneBody=0;top=0;left=0;bottom=0;right=0;collapsible=0;dropTarget=0;fillColor=none;points=[[0,0.5],[1,0.5]];portConstraint=eastwest;" vertex="1" parent="2Yrs-EgXKUs0sEF47n1H-69">
          <mxGeometry width="600" height="40" as="geometry" />
        </mxCell>
        <mxCell id="2Yrs-EgXKUs0sEF47n1H-71" value="0" style="shape=partialRectangle;html=1;whiteSpace=wrap;connectable=0;top=0;left=0;bottom=0;right=0;overflow=hidden;" vertex="1" parent="2Yrs-EgXKUs0sEF47n1H-70">
          <mxGeometry width="60" height="40" as="geometry">
            <mxRectangle width="60" height="40" as="alternateBounds" />
          </mxGeometry>
        </mxCell>
        <mxCell id="2Yrs-EgXKUs0sEF47n1H-72" value="1" style="shape=partialRectangle;html=1;whiteSpace=wrap;connectable=0;top=0;left=0;bottom=0;right=0;overflow=hidden;" vertex="1" parent="2Yrs-EgXKUs0sEF47n1H-70">
          <mxGeometry x="60" width="60" height="40" as="geometry">
            <mxRectangle width="60" height="40" as="alternateBounds" />
          </mxGeometry>
        </mxCell>
        <mxCell id="2Yrs-EgXKUs0sEF47n1H-73" value="2" style="shape=partialRectangle;html=1;whiteSpace=wrap;connectable=0;fillColor=#f8cecc;top=0;left=0;bottom=0;right=0;overflow=hidden;strokeColor=#b85450;" vertex="1" parent="2Yrs-EgXKUs0sEF47n1H-70">
          <mxGeometry x="120" width="60" height="40" as="geometry">
            <mxRectangle width="60" height="40" as="alternateBounds" />
          </mxGeometry>
        </mxCell>
        <mxCell id="2Yrs-EgXKUs0sEF47n1H-74" value="3" style="shape=partialRectangle;html=1;whiteSpace=wrap;connectable=0;fillColor=#ffe6cc;top=0;left=0;bottom=0;right=0;overflow=hidden;strokeColor=#d79b00;" vertex="1" parent="2Yrs-EgXKUs0sEF47n1H-70">
          <mxGeometry x="180" width="60" height="40" as="geometry">
            <mxRectangle width="60" height="40" as="alternateBounds" />
          </mxGeometry>
        </mxCell>
        <mxCell id="2Yrs-EgXKUs0sEF47n1H-75" value="4" style="shape=partialRectangle;html=1;whiteSpace=wrap;connectable=0;top=0;left=0;bottom=0;right=0;overflow=hidden;" vertex="1" parent="2Yrs-EgXKUs0sEF47n1H-70">
          <mxGeometry x="240" width="60" height="40" as="geometry">
            <mxRectangle width="60" height="40" as="alternateBounds" />
          </mxGeometry>
        </mxCell>
        <mxCell id="2Yrs-EgXKUs0sEF47n1H-76" value="5" style="shape=partialRectangle;html=1;whiteSpace=wrap;connectable=0;top=0;left=0;bottom=0;right=0;overflow=hidden;" vertex="1" parent="2Yrs-EgXKUs0sEF47n1H-70">
          <mxGeometry x="300" width="60" height="40" as="geometry">
            <mxRectangle width="60" height="40" as="alternateBounds" />
          </mxGeometry>
        </mxCell>
        <mxCell id="2Yrs-EgXKUs0sEF47n1H-77" value="6" style="shape=partialRectangle;html=1;whiteSpace=wrap;connectable=0;top=0;left=0;bottom=0;right=0;overflow=hidden;" vertex="1" parent="2Yrs-EgXKUs0sEF47n1H-70">
          <mxGeometry x="360" width="60" height="40" as="geometry">
            <mxRectangle width="60" height="40" as="alternateBounds" />
          </mxGeometry>
        </mxCell>
        <mxCell id="2Yrs-EgXKUs0sEF47n1H-78" value="7" style="shape=partialRectangle;html=1;whiteSpace=wrap;connectable=0;top=0;left=0;bottom=0;right=0;overflow=hidden;" vertex="1" parent="2Yrs-EgXKUs0sEF47n1H-70">
          <mxGeometry x="420" width="60" height="40" as="geometry">
            <mxRectangle width="60" height="40" as="alternateBounds" />
          </mxGeometry>
        </mxCell>
        <mxCell id="2Yrs-EgXKUs0sEF47n1H-79" value="8" style="shape=partialRectangle;html=1;whiteSpace=wrap;connectable=0;top=0;left=0;bottom=0;right=0;overflow=hidden;" vertex="1" parent="2Yrs-EgXKUs0sEF47n1H-70">
          <mxGeometry x="480" width="60" height="40" as="geometry">
            <mxRectangle width="60" height="40" as="alternateBounds" />
          </mxGeometry>
        </mxCell>
        <mxCell id="2Yrs-EgXKUs0sEF47n1H-80" value="9" style="shape=partialRectangle;html=1;whiteSpace=wrap;connectable=0;top=0;left=0;bottom=0;right=0;overflow=hidden;" vertex="1" parent="2Yrs-EgXKUs0sEF47n1H-70">
          <mxGeometry x="540" width="60" height="40" as="geometry">
            <mxRectangle width="60" height="40" as="alternateBounds" />
          </mxGeometry>
        </mxCell>
        <mxCell id="2Yrs-EgXKUs0sEF47n1H-81" value="&lt;h1&gt;lo = 2, hi = 3, target = 3&lt;/h1&gt;" style="text;html=1;align=center;verticalAlign=middle;resizable=0;points=[];autosize=1;strokeColor=none;fillColor=none;" vertex="1" parent="1">
          <mxGeometry x="440" y="190" width="270" height="50" as="geometry" />
        </mxCell>
        <mxCell id="2Yrs-EgXKUs0sEF47n1H-82" value="mid" style="text;html=1;align=center;verticalAlign=middle;resizable=0;points=[];autosize=1;strokeColor=none;fillColor=none;" vertex="1" parent="1">
          <mxGeometry x="260" y="240" width="30" height="20" as="geometry" />
        </mxCell>
        <mxCell id="2Yrs-EgXKUs0sEF47n1H-84" value="" style="shape=table;html=1;whiteSpace=wrap;startSize=0;container=1;collapsible=0;childLayout=tableLayout;" vertex="1" parent="1">
          <mxGeometry x="110" y="340" width="600" height="40" as="geometry" />
        </mxCell>
        <mxCell id="2Yrs-EgXKUs0sEF47n1H-85" value="" style="shape=tableRow;horizontal=0;startSize=0;swimlaneHead=0;swimlaneBody=0;top=0;left=0;bottom=0;right=0;collapsible=0;dropTarget=0;fillColor=none;points=[[0,0.5],[1,0.5]];portConstraint=eastwest;" vertex="1" parent="2Yrs-EgXKUs0sEF47n1H-84">
          <mxGeometry width="600" height="40" as="geometry" />
        </mxCell>
        <mxCell id="2Yrs-EgXKUs0sEF47n1H-86" value="0" style="shape=partialRectangle;html=1;whiteSpace=wrap;connectable=0;top=0;left=0;bottom=0;right=0;overflow=hidden;" vertex="1" parent="2Yrs-EgXKUs0sEF47n1H-85">
          <mxGeometry width="60" height="40" as="geometry">
            <mxRectangle width="60" height="40" as="alternateBounds" />
          </mxGeometry>
        </mxCell>
        <mxCell id="2Yrs-EgXKUs0sEF47n1H-87" value="1" style="shape=partialRectangle;html=1;whiteSpace=wrap;connectable=0;top=0;left=0;bottom=0;right=0;overflow=hidden;" vertex="1" parent="2Yrs-EgXKUs0sEF47n1H-85">
          <mxGeometry x="60" width="60" height="40" as="geometry">
            <mxRectangle width="60" height="40" as="alternateBounds" />
          </mxGeometry>
        </mxCell>
        <mxCell id="2Yrs-EgXKUs0sEF47n1H-88" value="2" style="shape=partialRectangle;html=1;whiteSpace=wrap;connectable=0;top=0;left=0;bottom=0;right=0;overflow=hidden;" vertex="1" parent="2Yrs-EgXKUs0sEF47n1H-85">
          <mxGeometry x="120" width="60" height="40" as="geometry">
            <mxRectangle width="60" height="40" as="alternateBounds" />
          </mxGeometry>
        </mxCell>
        <mxCell id="2Yrs-EgXKUs0sEF47n1H-89" value="3" style="shape=partialRectangle;html=1;whiteSpace=wrap;connectable=0;fillColor=#f8cecc;top=0;left=0;bottom=0;right=0;overflow=hidden;strokeColor=#b85450;" vertex="1" parent="2Yrs-EgXKUs0sEF47n1H-85">
          <mxGeometry x="180" width="60" height="40" as="geometry">
            <mxRectangle width="60" height="40" as="alternateBounds" />
          </mxGeometry>
        </mxCell>
        <mxCell id="2Yrs-EgXKUs0sEF47n1H-90" value="4" style="shape=partialRectangle;html=1;whiteSpace=wrap;connectable=0;top=0;left=0;bottom=0;right=0;overflow=hidden;" vertex="1" parent="2Yrs-EgXKUs0sEF47n1H-85">
          <mxGeometry x="240" width="60" height="40" as="geometry">
            <mxRectangle width="60" height="40" as="alternateBounds" />
          </mxGeometry>
        </mxCell>
        <mxCell id="2Yrs-EgXKUs0sEF47n1H-91" value="5" style="shape=partialRectangle;html=1;whiteSpace=wrap;connectable=0;top=0;left=0;bottom=0;right=0;overflow=hidden;" vertex="1" parent="2Yrs-EgXKUs0sEF47n1H-85">
          <mxGeometry x="300" width="60" height="40" as="geometry">
            <mxRectangle width="60" height="40" as="alternateBounds" />
          </mxGeometry>
        </mxCell>
        <mxCell id="2Yrs-EgXKUs0sEF47n1H-92" value="6" style="shape=partialRectangle;html=1;whiteSpace=wrap;connectable=0;top=0;left=0;bottom=0;right=0;overflow=hidden;" vertex="1" parent="2Yrs-EgXKUs0sEF47n1H-85">
          <mxGeometry x="360" width="60" height="40" as="geometry">
            <mxRectangle width="60" height="40" as="alternateBounds" />
          </mxGeometry>
        </mxCell>
        <mxCell id="2Yrs-EgXKUs0sEF47n1H-93" value="7" style="shape=partialRectangle;html=1;whiteSpace=wrap;connectable=0;top=0;left=0;bottom=0;right=0;overflow=hidden;" vertex="1" parent="2Yrs-EgXKUs0sEF47n1H-85">
          <mxGeometry x="420" width="60" height="40" as="geometry">
            <mxRectangle width="60" height="40" as="alternateBounds" />
          </mxGeometry>
        </mxCell>
        <mxCell id="2Yrs-EgXKUs0sEF47n1H-94" value="8" style="shape=partialRectangle;html=1;whiteSpace=wrap;connectable=0;top=0;left=0;bottom=0;right=0;overflow=hidden;" vertex="1" parent="2Yrs-EgXKUs0sEF47n1H-85">
          <mxGeometry x="480" width="60" height="40" as="geometry">
            <mxRectangle width="60" height="40" as="alternateBounds" />
          </mxGeometry>
        </mxCell>
        <mxCell id="2Yrs-EgXKUs0sEF47n1H-95" value="9" style="shape=partialRectangle;html=1;whiteSpace=wrap;connectable=0;top=0;left=0;bottom=0;right=0;overflow=hidden;" vertex="1" parent="2Yrs-EgXKUs0sEF47n1H-85">
          <mxGeometry x="540" width="60" height="40" as="geometry">
            <mxRectangle width="60" height="40" as="alternateBounds" />
          </mxGeometry>
        </mxCell>
        <mxCell id="2Yrs-EgXKUs0sEF47n1H-96" value="&lt;h1&gt;lo = 3, hi = 3, target = 3&lt;/h1&gt;" style="text;html=1;align=center;verticalAlign=middle;resizable=0;points=[];autosize=1;strokeColor=none;fillColor=none;" vertex="1" parent="1">
          <mxGeometry x="440" y="290" width="270" height="50" as="geometry" />
        </mxCell>
        <mxCell id="2Yrs-EgXKUs0sEF47n1H-97" value="mid" style="text;html=1;align=center;verticalAlign=middle;resizable=0;points=[];autosize=1;strokeColor=none;fillColor=none;" vertex="1" parent="1">
          <mxGeometry x="320" y="340" width="30" height="20" as="geometry" />
        </mxCell>
      </root>
    </mxGraphModel>
  </diagram>
</mxfile>
